<svg id="dump" xmlns="http://www.w3.org/2000/svg" viewBox="0 0 605.64 67.31"><defs><style>.cls-1{fill:#f9f9f9;}</style></defs><title>slogan (vertical white)</title><path class="cls-1" d="M319.11,17.72a3.07,3.07,0,0,1-.19,1.07h0a3,3,0,0,1-.25.53,3.12,3.12,0,1,1,.44-1.6Z"/><path class="cls-1" d="M599.4,17.72a3.07,3.07,0,0,1-.19,1.07h0a3,3,0,0,1-.25.53,3.12,3.12,0,1,1,.44-1.6Z"/><path class="cls-1" d="M7.77,27.07C8,19.72,12.89,16.83,20.48,16.83c2.47,0,11.42.71,11.42,8.59V43.14c0,1.3.65,1.82,1.71,1.82a9.85,9.85,0,0,0,1.71-.24v3.77a9.57,9.57,0,0,1-2.82.59c-4.59,0-5.3-2.35-5.47-4.71a14,14,0,0,1-11.12,5c-5.65,0-9.65-3.59-9.65-8.89,0-2.59.77-8.59,9.36-9.65l8.53-1.06c1.24-.12,2.71-.59,2.71-3.65,0-3.24-2.35-5-7.24-5-5.89,0-6.71,3.59-7.06,5.94Zm19,5.71c-.82.65-2.12,1.12-8.53,1.94-2.53.35-6.59,1.12-6.59,5,0,3.35,1.71,5.36,5.59,5.36,4.83,0,9.53-3.12,9.53-7.24Z"/><path class="cls-1" d="M40.25,48.49V6.24h5.18V21.6h.12a10.49,10.49,0,0,1,8.89-4.77c8.18,0,12.83,6.71,12.83,15.36,0,7.36-3.06,17.19-13.54,17.19a9.19,9.19,0,0,1-8.47-4.71h-.12v3.83Zm13.24-27c-7.47,0-8.3,8.06-8.3,13.07,0,8.18,5.12,10.36,8.42,10.36,5.65,0,8.3-5.12,8.3-11.89C61.91,29.07,61.5,21.48,53.49,21.48Z"/><path class="cls-1" d="M85.91,16.83c9.83,0,14.3,8.3,14.3,16.24s-4.47,16.24-14.3,16.24S71.61,41,71.61,33.08,76.09,16.83,85.91,16.83Zm0,28c7.41,0,8.95-7.65,8.95-11.77S93.33,21.3,85.91,21.3,77,29,77,33.08,78.5,44.85,85.91,44.85Z"/><path class="cls-1" d="M126.16,48.49V44L126,43.9c-2.18,3.59-4.83,5.47-9.77,5.47-4.53,0-10-2.18-10-9.53V17.71h5.18V38.14c0,5.06,2.59,6.77,5.94,6.77,6.53,0,8.47-5.77,8.47-10.24V17.71H131V48.49Z"/><path class="cls-1" d="M145.17,22V42c0,2.41,2.06,2.41,3.12,2.41h1.82v4.06c-1.88.18-3.35.41-3.88.41-5.12,0-6.24-2.88-6.24-6.59V22h-4.18v-4.3H140V9.12h5.18v8.59h4.94V22Z"/><path class="cls-1" d="M190.77,17.71h5.71c-3.59,10.06-7.12,20.13-11.06,30.19-4.89,12.48-5.42,13.18-12.07,13.18a7.66,7.66,0,0,1-2.18-.47V55.91a9.09,9.09,0,0,0,3.12.53c2.71,0,3-.77,5.47-7.12l-11.42-31.6h5.89l8.18,25.07h.12Z"/><path class="cls-1" d="M212.31,16.83c9.83,0,14.3,8.3,14.3,16.24s-4.47,16.24-14.3,16.24S198,41,198,33.08,202.48,16.83,212.31,16.83Zm0,28c7.41,0,8.95-7.65,8.95-11.77s-1.53-11.77-8.95-11.77-8.95,7.65-8.95,11.77S204.89,44.85,212.31,44.85Z"/><path class="cls-1" d="M252.56,48.49V44l-.12-.12c-2.18,3.59-4.83,5.47-9.77,5.47-4.53,0-10-2.18-10-9.53V17.71h5.18V38.14c0,5.06,2.59,6.77,5.94,6.77,6.53,0,8.47-5.77,8.47-10.24V17.71h5.18V48.49Z"/><path class="cls-1" d="M271.56,22V42c0,2.41,2.06,2.41,3.12,2.41h1.82v4.06c-1.88.18-3.35.41-3.88.41-5.12,0-6.24-2.88-6.24-6.59V22h-4.18v-4.3h4.18V9.12h5.18v8.59h4.94V22Z"/><path class="cls-1" d="M306.64,48.49h-5.18V28.37c0-4.18-1.18-6.89-6.12-6.89-4.24,0-8.59,2.47-8.59,10.24V48.49h-5.18V6.24h5.18v15.6h.12c1.47-1.94,4.06-5,9-5,4.77,0,10.77,1.94,10.77,10.71Z"/><path class="cls-1" d="M337.25,27.07c.23-7.36,5.12-10.24,12.71-10.24,2.47,0,11.42.71,11.42,8.59V43.14c0,1.3.65,1.82,1.71,1.82a9.85,9.85,0,0,0,1.71-.24v3.77a9.57,9.57,0,0,1-2.82.59c-4.59,0-5.3-2.35-5.47-4.71a14,14,0,0,1-11.12,5c-5.65,0-9.65-3.59-9.65-8.89,0-2.59.77-8.59,9.36-9.65l8.53-1.06c1.24-.12,2.71-.59,2.71-3.65,0-3.24-2.35-5-7.24-5-5.89,0-6.71,3.59-7.06,5.94Zm19,5.71c-.82.65-2.12,1.12-8.53,1.94-2.53.35-6.59,1.12-6.59,5,0,3.35,1.71,5.36,5.59,5.36,4.83,0,9.53-3.12,9.53-7.24Z"/><path class="cls-1" d="M369.73,48.49V6.24h5.18V21.6H375a10.49,10.49,0,0,1,8.89-4.77c8.18,0,12.83,6.71,12.83,15.36,0,7.36-3.06,17.19-13.54,17.19a9.19,9.19,0,0,1-8.47-4.71h-.12v3.83Zm13.24-27c-7.47,0-8.3,8.06-8.3,13.07,0,8.18,5.12,10.36,8.42,10.36,5.65,0,8.3-5.12,8.3-11.89C391.39,29.07,391,21.48,383,21.48Z"/><path class="cls-1" d="M415.39,16.83c9.83,0,14.3,8.3,14.3,16.24s-4.47,16.24-14.3,16.24-14.3-8.3-14.3-16.24S405.56,16.83,415.39,16.83Zm0,28c7.41,0,8.95-7.65,8.95-11.77s-1.53-11.77-8.95-11.77-8.95,7.65-8.95,11.77S408,44.85,415.39,44.85Z"/><path class="cls-1" d="M455.64,48.49V44l-.12-.12c-2.18,3.59-4.83,5.47-9.77,5.47-4.53,0-10-2.18-10-9.53V17.71h5.18V38.14c0,5.06,2.59,6.77,5.94,6.77,6.53,0,8.47-5.77,8.47-10.24V17.71h5.18V48.49Z"/><path class="cls-1" d="M474.65,22V42c0,2.41,2.06,2.41,3.12,2.41h1.82v4.06c-1.88.18-3.35.41-3.88.41-5.12,0-6.24-2.88-6.24-6.59V22h-4.18v-4.3h4.18V9.12h5.18v8.59h4.94V22Z"/><path class="cls-1" d="M520.25,17.71H526c-3.59,10.06-7.12,20.13-11.06,30.19-4.89,12.48-5.42,13.18-12.07,13.18a7.66,7.66,0,0,1-2.18-.47V55.91a9.09,9.09,0,0,0,3.12.53c2.71,0,3-.77,5.47-7.12l-11.42-31.6h5.89l8.18,25.07H512Z"/><path class="cls-1" d="M541.79,16.83c9.83,0,14.3,8.3,14.3,16.24s-4.47,16.24-14.3,16.24-14.3-8.3-14.3-16.24S532,16.83,541.79,16.83Zm0,28c7.42,0,8.95-7.65,8.95-11.77S549.2,21.3,541.79,21.3s-8.95,7.65-8.95,11.77S534.37,44.85,541.79,44.85Z"/><path class="cls-1" d="M582,48.49V44l-.12-.12c-2.18,3.59-4.83,5.47-9.77,5.47-4.53,0-10-2.18-10-9.53V17.71h5.18V38.14c0,5.06,2.59,6.77,5.94,6.77,6.53,0,8.47-5.77,8.47-10.24V17.71h5.18V48.49Z"/></svg>