<svg xmlns="http://www.w3.org/2000/svg" viewBox="0 0 16 16"><defs><style>.cls-1{fill:#f9f9f9;}.cls-2{fill:#0d00bd;}.cls-3{fill:#ff3707;}</style></defs><title>favicon (blue) </title><g id="logo"><path class="cls-1" d="M8,0A7.93,7.93,0,0,0,2.38,2.38,8.17,8.17,0,0,0,1,4.21H1c-.12.23-.23.45-.33.69s-.1.24-.14.36a8,8,0,0,0,4.29,10,0,0,0,0,0,0,0,8.59,8.59,0,0,0,1.24.42h0A8.13,8.13,0,0,0,8,16a8.4,8.4,0,0,0,1.59-.16A8,8,0,0,0,8,0Zm1.49,8.5a1.71,1.71,0,0,1-.12.27A1.62,1.62,0,0,1,8,9.59,1.59,1.59,0,1,1,9.59,8,1.72,1.72,0,0,1,9.49,8.55Z"/><path class="cls-2" d="M9.59,8a1.81,1.81,0,0,1-.22.82A1.62,1.62,0,0,1,8,9.59,1.59,1.59,0,1,1,9.59,8Z"/><path class="cls-3" d="M16,8a8,8,0,0,1-6.38,7.8l2.73-5.73A4.75,4.75,0,0,0,12.78,8c0-.09,0-.17,0-.26a4.78,4.78,0,1,0-5.28,5l-1.41,3A8,8,0,1,1,16,8Z"/><path class="cls-1" d="M8,0A7.93,7.93,0,0,0,2.38,2.38,8.17,8.17,0,0,0,1,4.21H1c-.12.23-.23.45-.33.69s-.1.24-.14.36a8,8,0,0,0,4.29,10,0,0,0,0,0,0,0,8.59,8.59,0,0,0,1.24.42h0A8.13,8.13,0,0,0,8,16a8.4,8.4,0,0,0,1.59-.16A8,8,0,0,0,8,0Zm1.49,8.5a1.71,1.71,0,0,1-.12.27A1.62,1.62,0,0,1,8,9.59,1.59,1.59,0,1,1,9.59,8,1.72,1.72,0,0,1,9.49,8.55Z"/><path class="cls-3" d="M9.59,8a1.81,1.81,0,0,1-.22.82A1.62,1.62,0,0,1,8,9.59,1.59,1.59,0,1,1,9.59,8Z"/><path class="cls-2" d="M16,8a8,8,0,0,1-6.38,7.8l2.73-5.73A4.75,4.75,0,0,0,12.78,8c0-.09,0-.17,0-.26a4.78,4.78,0,1,0-5.28,5l-1.41,3A8,8,0,1,1,16,8Z"/></g></svg>