<svg xmlns="http://www.w3.org/2000/svg" viewBox="0 0 325.63 396.32"><defs><style>.cls-1{fill:#f9f9f9;}</style></defs><title>Primary Mark (White)</title><g id="color_variations" data-name="color variations"><path class="cls-1" d="M279.2,163a116.58,116.58,0,0,1-93.28,114.09l39.9-83.78a69.59,69.59,0,0,0,6.9-30.3c0-1.26,0-2.53-.11-3.77a69.89,69.89,0,1,0-77.2,73.28L134.71,276A116.4,116.4,0,1,1,279.2,163Z"/><path class="cls-1" d="M162.81,279.4a116.16,116.16,0,0,1-28.1-3.43L99.59,349.72h51.73l34.6-72.63A116.49,116.49,0,0,1,162.81,279.4Z"/><path class="cls-1" d="M186.12,163a22.9,22.9,0,0,1-1.41,8v0a22.52,22.52,0,0,1-1.89,4,23.3,23.3,0,1,1,3.31-12Z"/></g></svg>